<svg id="Capa_1" enable-background="new 0 0 512 512" height="512" viewBox="0 0 512 512" width="512" xmlns="http://www.w3.org/2000/svg"><g><g><path d="m406 121h-30c-8.291 0-15-6.709-15-15s6.709-15 15-15h15v-45c0-6.064 3.647-11.543 9.258-13.857 5.64-2.344 12.07-1.04 16.348 3.252l30 30c5.859 5.859 5.859 15.352 0 21.211s-15.352 5.859-21.211 0l-4.395-4.395v23.789c0 8.291-6.709 15-15 15z" fill="#c34dff"/></g><g><path d="m46 271h-31c-8.291 0-15-6.709-15-15s6.709-15 15-15h16v-45c0-6.064 3.647-11.543 9.258-13.857 5.625-2.3 12.056-1.04 16.348 3.252l30 30c5.859 5.859 5.859 15.352 0 21.211s-15.352 5.859-21.211 0l-4.395-4.395v23.789c0 8.291-6.709 15-15 15z" fill="#e666ff"/></g><path d="m497 151h-15v-15c0-8.291-6.709-15-15-15s-15 6.709-15 15v15h-15c-8.291 0-15 6.709-15 15s6.709 15 15 15h15v15c0 8.291 6.709 15 15 15s15-6.709 15-15v-15h15c8.291 0 15-6.709 15-15s-6.709-15-15-15z" fill="#ffa64d"/><path d="m106 331h-15v-15c0-8.291-6.709-15-15-15s-15 6.709-15 15v15h-15c-8.291 0-15 6.709-15 15s6.709 15 15 15h15v15c0 8.291 6.709 15 15 15s15-6.709 15-15v-15h15c8.291 0 15-6.709 15-15s-6.709-15-15-15z" fill="#fc6"/><circle cx="256" cy="91" fill="#ffd5cc" r="60"/><path d="m316 91c0-33.091-26.909-60-60-60v120c33.091 0 60-26.909 60-60z" fill="#fa9"/><path d="m367.211 430.784c-61.784-61.758-79.482-126.052-81.211-129.784v-15h-30-30c-55.518 27.378-90 83.91-90 145.902v20.098c0 16.538 13.462 30 30 30s30-13.462 30-30v-20.098c0-33.164 16.348-65.292 43.726-84.291 4.858 11.979 10.323 23.373 16.274 34.327 18.4 33.867 41.766 64.234 68.818 91.297 11.667 11.638 30.586 11.746 42.393-.029 11.704-11.69 11.704-30.733 0-42.422z" fill="#4d173b"/><path d="m367.211 473.205c11.704-11.689 11.704-30.732 0-42.422-61.784-61.757-79.482-126.051-81.211-129.783v-15h-30v95.938c18.4 33.867 41.766 64.234 68.818 91.297 11.668 11.638 30.586 11.746 42.393-.03z" fill="#330a25"/><g><path d="m497 482h-241-241c-8.291 0-15 6.709-15 15s6.709 15 15 15h241 241c8.291 0 15-6.709 15-15s-6.709-15-15-15z" fill="#4d173b"/><path d="m512 497c0-8.291-6.709-15-15-15h-241v30h241c8.291 0 15-6.709 15-15z" fill="#330a25"/><path d="m435.092 293.69-1.597-6.387c-20.068-80.258-91.846-136.303-174.565-136.303-.996 0-1.939-.234-2.93-.258-55.719-1.386-103.716-41.292-114.697-96.185l-5.889-30.857c-7.899-39.247-66.672-26.096-58.828 12.763l5.889 29.857c14.238 71.191 71.909 128.083 143.525 141.501v78.179h30 30v-71.543c44.15 10.239 78.354 43.74 89.297 87.437l1.611 6.431c3.97 15.762 20.449 25.708 36.431 21.768 7.749-1.963 14.282-6.812 18.428-13.711 4.087-6.871 5.273-14.943 3.325-22.692z" fill="#f69"/><path d="m286 214.457c44.15 10.239 78.354 43.74 89.297 87.437l1.611 6.431c3.97 15.762 20.449 25.708 36.431 21.768 7.749-1.963 14.282-6.812 18.428-13.711 4.087-6.87 5.273-14.941 3.325-22.69l-1.597-6.387c-20.068-80.26-91.846-136.305-174.565-136.305-.996 0-1.939-.234-2.93-.258v135.258h30z" fill="#e62e6b"/></g></g></svg>